<svg width="160" height="160" viewBox="0 0 160 160" fill="none" xmlns="http://www.w3.org/2000/svg">
<rect width="160" height="160" rx="80" fill="url(#paint0_linear_352_8192)" fill-opacity="0.6"/>
<path d="M37.9933 41.9929C37.7524 41.9959 37.5135 41.9472 37.292 41.8501C37.0706 41.753 36.8714 41.6095 36.7074 41.4289C35.9725 40.677 35.9725 39.5116 36.7074 38.7597C45.415 29.8873 56.9518 25 69.26 25C73.7792 25 78.2984 25.6767 82.5971 27.0301C83.058 27.1776 83.4437 27.5048 83.6706 27.941C83.8975 28.3773 83.9475 28.8874 83.8095 29.361C83.5156 30.3761 82.4869 30.94 81.5316 30.6016C77.5486 29.3884 73.4157 28.768 69.26 28.7595C57.9438 28.7595 47.2888 33.2709 39.316 41.4665C38.9486 41.8425 38.4709 41.9929 37.9933 41.9929Z" fill="#90CA47"/>
<path d="M30.8371 79.4381C29.8083 79.4381 29 78.6111 29 77.5584C29 54.8511 47.0767 36.3545 69.2683 36.3545C70.2971 36.3545 71.1054 37.1816 71.1054 38.2342C71.1054 39.2869 70.2971 40.114 69.2683 40.114C49.0974 40.114 32.6741 56.9188 32.6741 77.5584C32.6741 78.6111 31.8658 79.4381 30.8371 79.4381ZM103.621 79.4381C103.621 80.4908 104.43 81.3179 105.458 81.3179C110.933 81.3179 116.187 79.6261 120.632 76.393C124.104 73.895 126.938 70.5792 128.895 66.7253C130.852 62.8715 131.874 58.5926 131.875 54.2496C131.875 53.2346 131.067 52.3699 130.038 52.3699C129.009 52.3699 128.201 53.197 128.201 54.2496C128.201 61.8438 124.564 68.9492 118.538 73.3478C114.703 76.0904 110.137 77.5603 105.458 77.5584C104.43 77.5584 103.621 78.3855 103.621 79.4381Z" fill="#90CA47"/>
<path d="M45.5307 74.2013L48.7492 77.6337H74.7252C98.3976 77.6337 117.286 98.262 117.286 123.274V125.642C117.286 130.127 113.862 134.101 109.247 134.101H82.5805C58.9045 134.101 40.0195 113.473 40.0195 88.461V66.844C40.0195 65.3026 41.2687 64.0244 42.7751 64.0244C44.2815 64.0244 45.5307 65.3026 45.5307 66.844V74.2013ZM82.5805 126.582H109.247C109.328 126.58 109.407 126.561 109.48 126.525C109.553 126.489 109.618 126.438 109.67 126.375C109.848 126.175 109.944 125.913 109.938 125.642V123.274C109.938 102.044 93.9923 85.1527 74.7252 85.1527H47.9115C48.3634 85.585 48.8668 85.9647 49.4253 86.2805L93.1473 110.717C94.4699 111.469 94.9843 113.161 94.2495 114.552C93.7719 115.492 92.8166 116.018 91.8613 116.018C91.4204 116.018 90.9795 115.905 90.5386 115.68L47.4853 91.619C48.9734 111.337 64.2834 126.582 82.5805 126.582ZM124.524 26.9935C124.524 25.9409 123.679 25.0762 122.65 25.0762C121.622 25.0762 120.777 25.9409 120.777 26.9935V33.4673L119.612 34.3997H101.315C85.4316 34.3997 72.7559 48.6293 72.7559 65.2274V66.844C72.7559 69.5809 74.8575 71.9193 77.6021 71.9193H95.969C111.804 71.9193 124.524 58.3025 124.524 41.6555V26.9935ZM120.119 38.1592C119.66 38.9938 118.976 39.7006 118.131 40.1893L88.4444 56.7686C87.5259 57.2573 87.1952 58.4228 87.7096 59.3626C87.9463 59.8084 88.3448 60.141 88.8191 60.2887C89.2934 60.4365 89.8054 60.3874 90.2447 60.1521L119.932 43.5728C120.239 43.3975 120.535 43.2042 120.821 42.9939C120.163 57.0731 109.229 68.1598 95.969 68.1598H77.5984C77.0179 68.1598 76.43 67.641 76.43 66.844V65.2274C76.43 50.4715 87.6802 38.1592 101.311 38.1592H120.119Z" fill="#90CA47"/>
<defs>
<linearGradient id="paint0_linear_352_8192" x1="136.232" y1="21.4493" x2="26.9565" y2="139.42" gradientUnits="userSpaceOnUse">
<stop stop-color="#BEED99"/>
<stop offset="1" stop-color="#90CA47"/>
</linearGradient>
</defs>
</svg>
