<svg width="160" height="160" viewBox="0 0 160 160" fill="none" xmlns="http://www.w3.org/2000/svg">
<rect width="160" height="160" rx="80" fill="url(#paint0_linear_352_8542)" fill-opacity="0.6"/>
<path d="M44.0027 120.5L58.5027 100.5L101.502 99.75C105.919 103.417 115.002 112.3 116.002 118.5C117.002 124.7 112.085 128.417 109.502 129.5C93.0855 129.75 58.3027 130.1 50.5027 129.5C42.7027 128.9 42.9194 123.25 44.0027 120.5Z" fill="url(#paint1_linear_352_8542)"/>
<path d="M116.956 112.803L93.0022 79.7777V47.6429H99.6274V41H59.8759V47.6429H66.5011V79.7777L42.5475 112.803C41.1026 114.794 40.2353 117.147 40.0415 119.601C39.8477 122.056 40.335 124.516 41.4494 126.711C42.5638 128.905 44.2619 130.747 46.3558 132.034C48.4497 133.32 50.8578 134.001 53.3136 134H106.186C108.642 134.001 111.05 133.32 113.144 132.034C115.238 130.747 116.936 128.905 118.051 126.711C119.165 124.516 119.652 122.056 119.458 119.601C119.265 117.147 118.397 114.794 116.952 112.803H116.956ZM73.1264 81.9366V47.6429H86.3769V81.9366L95.2316 94.1429H64.2717L73.1264 81.9366ZM106.19 127.357H53.3169C52.0839 127.356 50.8752 127.013 49.8243 126.366C48.7734 125.72 47.9211 124.795 47.3615 123.693C46.8019 122.591 46.5567 121.356 46.653 120.124C46.7493 118.891 47.1834 117.709 47.9073 116.709L59.4552 100.786H100.048L111.599 116.709C112.323 117.709 112.757 118.891 112.854 120.124C112.95 121.356 112.705 122.591 112.145 123.693C111.586 124.795 110.733 125.72 109.682 126.366C108.631 127.013 107.423 127.356 106.19 127.357Z" fill="#609CD3"/>
<circle cx="61.5" cy="118.5" r="3.5" fill="white"/>
<circle cx="71" cy="109" r="3.5" fill="white"/>
<circle cx="78.5" cy="87.5" r="3.5" fill="#64C1DE"/>
<circle cx="78.5" cy="56.5" r="3.5" fill="#64C1DE"/>
<circle cx="74.5" cy="34.5" r="3.5" fill="#64C1DE"/>
<circle cx="65.5" cy="29" r="2" fill="#64C1DE"/>
<circle cx="80" cy="72" r="2" fill="#64C1DE"/>
<circle cx="60" cy="109" r="2" fill="white"/>
<defs>
<linearGradient id="paint0_linear_352_8542" x1="138.667" y1="17.6667" x2="83.9191" y2="162.139" gradientUnits="userSpaceOnUse">
<stop stop-color="#C8E4FF"/>
<stop offset="1" stop-color="#64C1DE"/>
</linearGradient>
<linearGradient id="paint1_linear_352_8542" x1="106.443" y1="103.071" x2="101.689" y2="133.388" gradientUnits="userSpaceOnUse">
<stop stop-color="#C8E4FF"/>
<stop offset="1" stop-color="#64C1DE"/>
</linearGradient>
</defs>
</svg>
