<svg width="160" height="160" viewBox="0 0 160 160" fill="none" xmlns="http://www.w3.org/2000/svg">
<rect width="160" height="160" rx="80" fill="url(#paint0_linear_352_8251)" fill-opacity="0.6"/>
<path d="M93.3059 37.0436C85.3312 32.2812 75.8351 30.953 66.9039 33.3508C57.9727 35.7485 50.337 41.676 45.6745 49.8311C43.3641 53.8718 41.8543 58.3385 41.231 62.9763C40.6078 67.6141 40.8834 72.332 42.0421 76.8608C43.2008 81.3896 45.2199 85.6405 47.9842 89.3708C50.7485 93.1012 54.2037 96.2379 58.1527 98.6018C62.1017 100.966 66.4671 102.511 70.9996 103.148C75.5321 103.786 80.143 103.504 84.5689 102.318C88.9949 101.132 93.1493 99.0663 96.7949 96.2377C100.44 93.4091 103.506 89.8734 105.816 85.8326C110.482 77.6722 111.788 67.9495 109.448 58.8035C107.108 49.6574 101.313 41.8371 93.3378 37.0629C93.3272 37.0565 93.3166 37.05 93.3059 37.0436ZM92.8421 41.4588C95.6949 43.9074 97.1959 48.3909 97.0466 54.2494C96.9988 56.1387 96.7689 58.1524 96.3698 60.2464L85.739 53.8827L92.8421 41.4588ZM89.7663 39.7803L82.7309 52.082L72.6575 46.0524C74.2452 44.6702 75.8488 43.4775 77.4334 42.5099C82.063 39.6825 86.3691 38.7587 89.7643 39.7803H89.7663ZM82.3606 36.4661C80.1359 37.0772 77.8714 38.0906 75.6487 39.4483C73.5653 40.7214 71.4939 42.3022 69.4792 44.1487L61.3867 39.3047C67.8465 35.9017 75.2604 34.8984 82.3626 36.4661H82.3606ZM99.8865 47.3398C104.301 52.7922 106.831 59.5843 107.083 66.66L99.5441 62.147C100.132 59.4459 100.467 56.8242 100.529 54.3421C100.593 51.865 100.38 49.5041 99.8865 47.3398ZM57.9725 41.3906L66.8783 46.7215C64.3132 49.4501 61.8844 52.6187 59.7015 56.1632L49.6043 50.1183C51.8182 46.6843 54.6597 43.7205 57.9725 41.3896V41.3906ZM69.9849 48.5813L80.973 55.1589L75.1211 65.394L62.7126 57.9649C64.9283 54.3899 67.4049 51.2305 69.9849 48.5813ZM83.9801 56.9597L95.5237 63.8703C94.5323 67.4698 93.0551 71.2271 91.0942 74.9549L78.1282 67.1937L83.9801 56.9597ZM98.6273 65.7281L106.981 70.728C106.618 74.8248 105.486 78.8113 103.645 82.4685L94.0973 76.7536C96.0472 73.0706 97.5583 69.352 98.6273 65.7281ZM47.8454 53.1952L57.9257 59.2299C55.9429 62.8803 54.3901 66.5735 53.2743 70.1821L44.5098 64.9367C44.8722 60.8396 46.0048 56.8527 47.8454 53.1952ZM60.9328 61.0307L73.3623 68.471L67.5104 78.705L56.3719 72.0378C57.4181 68.4506 58.9361 64.7208 60.9328 61.0307ZM76.3694 70.2707L89.3542 78.044C87.1893 81.6343 84.7555 84.8151 82.2123 87.5061L70.5174 80.5048L76.3694 70.2707ZM92.3524 79.8386L101.885 85.5454C99.6716 88.9792 96.8304 91.9431 93.518 94.2741L85.306 89.3577C87.8323 86.5935 90.2143 83.3953 92.3524 79.8386ZM44.4073 69.0047L52.3077 73.7336C51.6169 76.6945 51.2327 79.5667 51.165 82.2719C51.1103 84.3955 51.2616 86.4336 51.615 88.3372C47.1941 82.883 44.66 76.0859 44.4073 69.0047ZM55.4701 75.6271L65.7515 81.782L58.4344 94.5797C58.2552 94.4585 58.083 94.3301 57.9068 94.2059C55.6732 91.6311 54.5165 87.5346 54.6479 82.3646C54.7017 80.2542 54.9764 77.987 55.4701 75.6271ZM68.7586 83.5817L79.5964 90.0697C77.8276 91.6667 76.0319 93.0224 74.2601 94.104C70.0078 96.7012 66.0282 97.6923 62.7773 97.0465C62.3293 96.8367 61.8834 96.6126 61.4415 96.3804L68.7586 83.5817ZM82.7568 91.9621L90.1028 96.359C84.2623 99.4347 77.6261 100.559 71.1286 99.5725C72.8393 98.9333 74.4859 98.1273 76.0458 97.1657C78.3163 95.7795 80.5749 94.0297 82.7568 91.9621Z" fill="#F24768"/>
<path d="M97.0727 29.0783C96.4284 29.1055 95.81 29.3454 95.31 29.7621C94.8101 30.1789 94.4553 30.75 94.2989 31.3902C94.1425 32.0303 94.1929 32.7051 94.4424 33.3135C94.6919 33.922 95.1272 34.4314 95.6832 34.7657C107.948 42.374 114.978 56.0415 114.051 70.3629C113.124 84.6833 104.385 97.3496 91.2328 103.322C78.0807 109.296 62.6879 107.557 51.215 98.8173C50.9005 98.5776 50.543 98.4036 50.1628 98.3053C49.7826 98.207 49.3872 98.1863 48.9991 98.2444C48.6111 98.3025 48.2381 98.4382 47.9013 98.6438C47.5645 98.8494 47.2706 99.1208 47.0364 99.4426C46.8021 99.7644 46.6321 100.13 46.5361 100.519C46.44 100.908 46.4198 101.313 46.4765 101.71C46.5333 102.107 46.6659 102.489 46.8668 102.833C47.0678 103.178 47.3331 103.479 47.6476 103.718C50.2307 105.686 53.0124 107.365 55.9451 108.725C49.2163 110.64 44.9062 113.73 44.9062 117.831C44.9062 125.062 57.2302 130.926 74.768 130.926C92.3058 130.926 104.63 125.062 104.63 117.831C104.63 113.787 100.444 110.722 93.8745 108.803C108.874 101.893 118.94 87.2988 120.01 70.7662C121.085 54.1522 112.895 38.2959 98.7778 29.5397C98.2678 29.2137 97.6735 29.0529 97.0727 29.0783ZM60.4752 110.535C63.9782 111.719 67.6069 112.47 71.2841 112.772V114.88C71.2841 115.616 71.6512 116.322 72.3045 116.843C72.9579 117.363 73.844 117.656 74.768 117.656C75.692 117.656 76.5781 117.363 77.2315 116.843C77.8848 116.322 78.2519 115.616 78.2519 114.88V112.812C82.0226 112.538 85.7463 111.792 89.3395 110.591C94.9894 111.861 98.6574 113.841 98.6574 116.086C98.6574 119.943 87.9619 123.07 74.768 123.07C61.5741 123.07 50.8786 119.943 50.8786 116.086C50.8786 113.811 54.6481 111.804 60.4752 110.535Z" fill="#F24768"/>
<defs>
<linearGradient id="paint0_linear_352_8251" x1="136.232" y1="21.4493" x2="26.9565" y2="139.42" gradientUnits="userSpaceOnUse">
<stop stop-color="#FFA4A4"/>
<stop offset="1" stop-color="#F24768"/>
</linearGradient>
</defs>
</svg>
