<svg width="160" height="160" viewBox="0 0 160 160" fill="none" xmlns="http://www.w3.org/2000/svg">
<rect width="160" height="160" rx="80" fill="url(#paint0_linear_352_6274)" fill-opacity="0.6"/>
<path d="M85.397 74C85.7446 74.3331 86.0944 74.6485 86.4527 74.9419C89.2209 77.2251 92.18 78.2068 94.9974 78.3612C99.7397 78.6215 103.958 76.4464 105.673 75.5596L106.156 75.317C107.185 74.8179 107.98 73.9188 108.365 72.8176C108.749 71.7163 108.693 70.503 108.207 69.4446C107.722 68.3862 106.847 67.5694 105.776 67.1739C104.705 66.7784 103.524 66.8366 102.495 67.3357L101.778 67.6886C99.8813 68.6306 97.772 69.6762 95.4545 69.5505C94.3279 69.4865 93.1134 69.1225 91.8237 68.0592C90.4826 66.9518 88.8797 64.9377 87.3304 61.2824C86.0751 58.322 84.2039 56.0277 81.5473 54.724C79.0024 53.4754 76.2943 53.4224 73.8803 53.718C67.4106 54.5078 62.4945 58.3639 59.1513 61.9464C56.3982 64.8936 54.3446 68.0923 53.3361 69.6608C53.1322 69.9807 52.9713 70.2321 52.8554 70.3998C52.2194 71.357 51.9754 72.533 52.1762 73.6737C52.3769 74.8144 53.0062 75.828 53.9281 76.4954C54.85 77.1629 55.9903 77.4306 57.1027 77.2406C58.215 77.0506 59.2099 76.4183 59.8723 75.4802C60.1126 75.1317 60.3766 74.7235 60.6705 74.2669C61.7435 72.608 63.2133 70.3358 65.3442 68.0548C67.0222 66.2569 68.902 64.7017 70.9705 63.6803L69.3976 68.1409C67.8097 72.6543 66.0437 77.7149 65.7583 78.7296C65.5678 79.4157 65.5268 80.1365 65.6381 80.8408C65.7047 81.2864 65.8205 81.6636 65.9128 81.9283C66.0952 82.4534 66.3377 82.9519 66.5523 83.3534C66.99 84.1829 67.5908 85.1381 68.2367 86.1065C69.5457 88.072 71.3096 90.4876 73.0584 92.826C74.6034 94.8886 76.1763 96.9423 77.4703 98.6321L77.9874 99.3094C78.6827 100.216 79.2642 100.977 79.6912 101.548C79.8843 101.804 80.0131 101.985 80.0989 102.1C80.1826 102.393 80.2877 102.819 80.4143 103.377C80.6654 104.487 80.953 105.93 81.2577 107.516C81.4551 108.535 81.6589 109.622 81.8585 110.697C82.2662 112.865 82.6632 114.983 82.9679 116.399C83.0896 116.965 83.3186 117.501 83.6416 117.975C83.9647 118.45 84.3756 118.855 84.8508 119.167C85.3261 119.478 85.8563 119.69 86.4114 119.791C86.9664 119.892 87.5354 119.88 88.0857 119.755C88.636 119.629 89.157 119.394 89.6189 119.062C90.0808 118.73 90.4745 118.307 90.7775 117.819C91.0806 117.33 91.2871 116.785 91.3853 116.215C91.4834 115.644 91.4713 115.059 91.3495 114.493C91.0706 113.192 90.7122 111.295 90.3238 109.217C90.1157 108.109 89.8989 106.951 89.6801 105.806C89.4008 104.325 89.0989 102.849 88.7745 101.379C88.6451 100.794 88.5006 100.213 88.3411 99.6359C88.2338 99.2653 88.0149 98.4932 87.6415 97.8203C87.2949 97.2566 86.9181 96.713 86.5128 96.1923L86.4913 96.1658C86.0321 95.5504 85.4227 94.754 84.7318 93.8518L84.2103 93.1701C82.5823 91.0502 80.9672 88.9199 79.365 86.7793L85.397 74ZM70.2195 100.732L64.0931 91.9811L62.3336 97.185L51.6602 94.6062C50.5521 94.3385 49.386 94.5343 48.4184 95.1506C47.4508 95.7668 46.7609 96.7529 46.5005 97.892C46.2402 99.0312 46.4306 100.23 47.03 101.225C47.6294 102.219 48.5887 102.929 49.6967 103.196L64.1339 106.684C65.1668 106.933 66.2528 106.78 67.1825 106.255C68.1121 105.729 68.8195 104.868 69.168 103.838L70.2195 100.732Z" stroke="#977AEE" stroke-width="5" stroke-linecap="round" stroke-linejoin="round"/>
<mask id="path-4-inside-1_352_6274" fill="white">
<path fill-rule="evenodd" clip-rule="evenodd" d="M94.6706 51.4722C96.3779 51.4722 98.0153 50.7749 99.2226 49.5338C100.43 48.2927 101.108 46.6094 101.108 44.8542C101.108 43.099 100.43 41.4157 99.2226 40.1746C98.0153 38.9335 96.3779 38.2362 94.6706 38.2362C92.9632 38.2362 91.3258 38.9335 90.1186 40.1746C88.9113 41.4157 88.2331 43.099 88.2331 44.8542C88.2331 46.6094 88.9113 48.2927 90.1186 49.5338C91.3258 50.7749 92.9632 51.4722 94.6706 51.4722ZM94.6706 55.8842C97.5161 55.8842 100.245 54.7221 102.257 52.6536C104.269 50.5851 105.4 47.7795 105.4 44.8542C105.4 41.9289 104.269 39.1233 102.257 37.0548C100.245 34.9863 97.5161 33.8242 94.6706 33.8242C91.825 33.8242 89.096 34.9863 87.0839 37.0548C85.0718 39.1233 83.9414 41.9289 83.9414 44.8542C83.9414 47.7795 85.0718 50.5851 87.0839 52.6536C89.096 54.7221 91.825 55.8842 94.6706 55.8842Z"/>
</mask>
<path fill-rule="evenodd" clip-rule="evenodd" d="M94.6706 51.4722C96.3779 51.4722 98.0153 50.7749 99.2226 49.5338C100.43 48.2927 101.108 46.6094 101.108 44.8542C101.108 43.099 100.43 41.4157 99.2226 40.1746C98.0153 38.9335 96.3779 38.2362 94.6706 38.2362C92.9632 38.2362 91.3258 38.9335 90.1186 40.1746C88.9113 41.4157 88.2331 43.099 88.2331 44.8542C88.2331 46.6094 88.9113 48.2927 90.1186 49.5338C91.3258 50.7749 92.9632 51.4722 94.6706 51.4722ZM94.6706 55.8842C97.5161 55.8842 100.245 54.7221 102.257 52.6536C104.269 50.5851 105.4 47.7795 105.4 44.8542C105.4 41.9289 104.269 39.1233 102.257 37.0548C100.245 34.9863 97.5161 33.8242 94.6706 33.8242C91.825 33.8242 89.096 34.9863 87.0839 37.0548C85.0718 39.1233 83.9414 41.9289 83.9414 44.8542C83.9414 47.7795 85.0718 50.5851 87.0839 52.6536C89.096 54.7221 91.825 55.8842 94.6706 55.8842Z" fill="#977AEE"/>
<path d="M94.6706 51.4722V56.4722V51.4722ZM88.2331 44.8542L83.2331 44.8542L88.2331 44.8542ZM94.6706 51.4722V56.4722C97.7493 56.4722 100.673 55.2136 102.807 53.0202L99.2226 49.5338L95.6385 46.0475C95.3576 46.3363 95.0065 46.4722 94.6706 46.4722V51.4722ZM99.2226 49.5338L102.807 53.0202C104.936 50.8314 106.108 47.8915 106.108 44.8542H101.108H96.1081C96.1081 45.3273 95.924 45.754 95.6385 46.0475L99.2226 49.5338ZM101.108 44.8542H106.108C106.108 41.8169 104.936 38.877 102.807 36.6883L99.2226 40.1746L95.6385 43.6609C95.924 43.9544 96.1081 44.3811 96.1081 44.8542H101.108ZM99.2226 40.1746L102.807 36.6883C100.673 34.4948 97.7493 33.2362 94.6706 33.2362V38.2362V43.2362C95.0065 43.2362 95.3576 43.3721 95.6385 43.6609L99.2226 40.1746ZM94.6706 38.2362V33.2362C91.5918 33.2362 88.6681 34.4948 86.5345 36.6883L90.1186 40.1746L93.7026 43.6609C93.9836 43.3721 94.3346 43.2362 94.6706 43.2362V38.2362ZM90.1186 40.1746L86.5345 36.6883C84.4054 38.877 83.2331 41.8168 83.2331 44.8542L88.2331 44.8542L93.2331 44.8542C93.2331 44.3812 93.4172 43.9544 93.7026 43.6609L90.1186 40.1746ZM88.2331 44.8542L83.2331 44.8542C83.2331 47.8916 84.4054 50.8314 86.5345 53.0202L90.1186 49.5338L93.7026 46.0475C93.4172 45.754 93.2331 45.3272 93.2331 44.8542L88.2331 44.8542ZM90.1186 49.5338L86.5345 53.0202C88.6681 55.2136 91.5918 56.4722 94.6706 56.4722L94.6706 51.4722L94.6706 46.4722C94.3346 46.4722 93.9835 46.3363 93.7026 46.0475L90.1186 49.5338ZM94.6706 55.8842V60.8842C98.8875 60.8842 102.903 59.1608 105.841 56.1399L102.257 52.6536L98.6732 49.1673C97.5874 50.2835 96.1447 50.8842 94.6706 50.8842V55.8842ZM102.257 52.6536L105.841 56.1399C108.775 53.1237 110.4 49.0617 110.4 44.8542H105.4H100.4C100.4 46.4974 99.7635 48.0464 98.6732 49.1673L102.257 52.6536ZM105.4 44.8542H110.4C110.4 40.6467 108.775 36.5847 105.841 33.5685L102.257 37.0548L98.6732 40.5411C99.7635 41.662 100.4 43.211 100.4 44.8542H105.4ZM102.257 37.0548L105.841 33.5685C102.903 30.5477 98.8875 28.8242 94.6706 28.8242V33.8242V38.8242C96.1447 38.8242 97.5874 39.425 98.6732 40.5411L102.257 37.0548ZM94.6706 33.8242V28.8242C90.4536 28.8242 86.4383 30.5477 83.4998 33.5685L87.0839 37.0548L90.668 40.5411C91.7537 39.425 93.1964 38.8242 94.6706 38.8242V33.8242ZM87.0839 37.0548L83.4998 33.5685C80.5659 36.5847 78.9414 40.6467 78.9414 44.8542H83.9414H88.9414C88.9414 43.211 89.5777 41.662 90.668 40.5411L87.0839 37.0548ZM83.9414 44.8542H78.9414C78.9414 49.0617 80.5659 53.1237 83.4998 56.1399L87.0839 52.6536L90.668 49.1673C89.5777 48.0464 88.9414 46.4974 88.9414 44.8542H83.9414ZM87.0839 52.6536L83.4998 56.1399C86.4383 59.1608 90.4536 60.8842 94.6706 60.8842V55.8842V50.8842C93.1964 50.8842 91.7537 50.2835 90.668 49.1673L87.0839 52.6536Z" fill="#977AEE" mask="url(#path-4-inside-1_352_6274)"/>
<defs>
<linearGradient id="paint0_linear_352_6274" x1="136.232" y1="21.4493" x2="26.9565" y2="139.42" gradientUnits="userSpaceOnUse">
<stop stop-color="#E7DEFF"/>
<stop offset="1" stop-color="#B69FFC"/>
</linearGradient>
</defs>
</svg>
