<svg width="160" height="160" viewBox="0 0 160 160" fill="none" xmlns="http://www.w3.org/2000/svg">
<rect width="160" height="160" rx="80" fill="url(#paint0_linear_352_7096)" fill-opacity="0.6"/>
<path d="M121.839 109.759L118.305 96.4814L104.214 43.3291C103.796 41.7891 102.791 40.4783 101.42 39.6817C100.049 38.8851 98.4217 38.6671 96.8921 39.0752L83.7376 42.6416C83.409 42.7256 83.0938 42.8557 82.8011 43.0283C82.2719 42.1376 81.5232 41.4003 80.628 40.8883C79.7328 40.3763 78.7215 40.1069 77.6925 40.1064H64.0698C62.8517 40.0994 61.6616 40.4748 60.6641 41.1806C59.6667 40.4748 58.4766 40.0994 57.2585 40.1064H43.6357C42.055 40.1064 40.5391 40.7402 39.4214 41.8683C38.3037 42.9965 37.6758 44.5266 37.6758 46.122V114.872C37.6758 116.467 38.3037 117.998 39.4214 119.126C40.5391 120.254 42.055 120.888 43.6357 120.888H57.2585C58.4766 120.895 59.6667 120.519 60.6641 119.813C61.6616 120.519 62.8517 120.895 64.0698 120.888H77.6925C79.2732 120.888 80.7891 120.254 81.9069 119.126C83.0246 117.998 83.6525 116.467 83.6525 114.872V65.5439L97.1475 116.419C97.4931 117.702 98.2472 118.834 99.2934 119.642C100.34 120.449 101.62 120.887 102.937 120.888C103.455 120.879 103.969 120.807 104.47 120.673L117.624 117.106C119.147 116.693 120.445 115.688 121.235 114.311C122.025 112.934 122.242 111.297 121.839 109.759ZM88.6333 64.4697L103.448 60.4736L112.728 95.3213L97.9138 99.3174L88.6333 64.4697ZM84.5465 48.0556C84.6557 47.8514 84.8386 47.6975 85.0573 47.6259L98.2118 44.0595H98.4246C98.6095 44.0637 98.7891 44.1231 98.9406 44.2302C99.0921 44.3372 99.2088 44.4872 99.276 44.6611L102.128 55.4892L87.3136 59.4853L84.4613 48.7002C84.4094 48.4821 84.4397 48.2523 84.5465 48.0556ZM64.0698 45.2627H77.6925C77.9184 45.2627 78.1349 45.3532 78.2946 45.5144C78.4543 45.6755 78.544 45.8941 78.544 46.122V98.5439H63.2184V46.122C63.2184 45.8941 63.3081 45.6755 63.4678 45.5144C63.6274 45.3532 63.844 45.2627 64.0698 45.2627ZM43.6357 45.2627H57.2585C57.4843 45.2627 57.7008 45.3532 57.8605 45.5144C58.0202 45.6755 58.1099 45.8941 58.1099 46.122V57.2939H42.7843V46.122C42.7843 45.8941 42.874 45.6755 43.0337 45.5144C43.1934 45.3532 43.4099 45.2627 43.6357 45.2627ZM57.2585 115.731H43.6357C43.4099 115.731 43.1934 115.641 43.0337 115.48C42.874 115.319 42.7843 115.1 42.7843 114.872V62.4502H58.1099V114.872C58.1099 115.1 58.0202 115.319 57.8605 115.48C57.7008 115.641 57.4843 115.731 57.2585 115.731ZM77.6925 115.731H64.0698C63.844 115.731 63.6274 115.641 63.4678 115.48C63.3081 115.319 63.2184 115.1 63.2184 114.872V103.7H78.544V114.872C78.544 115.1 78.4543 115.319 78.2946 115.48C78.1349 115.641 77.9184 115.731 77.6925 115.731ZM116.304 112.122L103.15 115.688C103.041 115.721 102.927 115.731 102.814 115.719C102.701 115.706 102.591 115.67 102.492 115.614C102.393 115.558 102.306 115.483 102.236 115.392C102.166 115.302 102.115 115.198 102.086 115.087L99.2335 104.302L114.048 100.306L116.9 111.091C116.932 111.198 116.942 111.311 116.929 111.422C116.916 111.533 116.88 111.64 116.825 111.737C116.769 111.834 116.694 111.918 116.604 111.984C116.515 112.05 116.413 112.097 116.304 112.122Z" fill="#97624B"/>
<defs>
<linearGradient id="paint0_linear_352_7096" x1="136.232" y1="21.4493" x2="26.9565" y2="139.42" gradientUnits="userSpaceOnUse">
<stop stop-color="#FFCCA7"/>
<stop offset="1" stop-color="#97624B"/>
</linearGradient>
</defs>
</svg>
