<svg width="160" height="160" viewBox="0 0 160 160" fill="none" xmlns="http://www.w3.org/2000/svg">
<rect width="160" height="160" rx="80" fill="url(#paint0_linear_352_8090)" fill-opacity="0.6"/>
<path d="M73.875 100.565C73.875 101.426 73.5392 102.252 72.9414 102.861C72.3436 103.47 71.5329 103.812 70.6875 103.812H61.125V113.551C61.125 114.412 60.7892 115.238 60.1914 115.847C59.5936 116.456 58.7829 116.798 57.9375 116.798C57.0921 116.798 56.2814 116.456 55.6836 115.847C55.0858 115.238 54.75 114.412 54.75 113.551V103.812H45.1875C44.3421 103.812 43.5314 103.47 42.9336 102.861C42.3358 102.252 42 101.426 42 100.565C42 99.7042 42.3358 98.8785 42.9336 98.2696C43.5314 97.6608 44.3421 97.3187 45.1875 97.3187H54.75V87.5791C54.75 86.7181 55.0858 85.8923 55.6836 85.2835C56.2814 84.6747 57.0921 84.3326 57.9375 84.3326C58.7829 84.3326 59.5936 84.6747 60.1914 85.2835C60.7892 85.8923 61.125 86.7181 61.125 87.5791V97.3187H70.6875C71.5329 97.3187 72.3436 97.6608 72.9414 98.2696C73.5392 98.8785 73.875 99.7042 73.875 100.565ZM70.6875 51.8673H45.1875C44.3421 51.8673 43.5314 52.2094 42.9336 52.8182C42.3358 53.4271 42 54.2528 42 55.1139C42 55.9749 42.3358 56.8007 42.9336 57.4095C43.5314 58.0184 44.3421 58.3604 45.1875 58.3604H70.6875C71.5329 58.3604 72.3436 58.0184 72.9414 57.4095C73.5392 56.8007 73.875 55.9749 73.875 55.1139C73.875 54.2528 73.5392 53.4271 72.9414 52.8182C72.3436 52.2094 71.5329 51.8673 70.6875 51.8673ZM89.8125 97.3593H115.312C116.158 97.3593 116.969 97.0173 117.566 96.4084C118.164 95.7996 118.5 94.9738 118.5 94.1128C118.5 93.2518 118.164 92.426 117.566 91.8171C116.969 91.2083 116.158 90.8663 115.312 90.8663H89.8125C88.9671 90.8663 88.1564 91.2083 87.5586 91.8171C86.9608 92.426 86.625 93.2518 86.625 94.1128C86.625 94.9738 86.9608 95.7996 87.5586 96.4084C88.1564 97.0173 88.9671 97.3593 89.8125 97.3593ZM115.312 103.771H89.8125C88.9671 103.771 88.1564 104.113 87.5586 104.722C86.9608 105.331 86.625 106.157 86.625 107.018C86.625 107.879 86.9608 108.705 87.5586 109.313C88.1564 109.922 88.9671 110.264 89.8125 110.264H115.312C116.158 110.264 116.969 109.922 117.566 109.313C118.164 108.705 118.5 107.879 118.5 107.018C118.5 106.157 118.164 105.331 117.566 104.722C116.969 104.113 116.158 103.771 115.312 103.771ZM90.7289 67.1666C91.3382 67.7666 92.1525 68.102 93 68.102C93.8475 68.102 94.6618 67.7666 95.2711 67.1666L102.562 59.6996L109.854 67.1666C110.463 67.7666 111.278 68.102 112.125 68.102C112.972 68.102 113.787 67.7666 114.396 67.1666C114.995 66.5511 115.33 65.7198 115.33 64.8535C115.33 63.9871 114.995 63.1558 114.396 62.5403L107.065 55.1139L114.396 47.6874C114.904 47.0567 115.164 46.2559 115.125 45.4408C115.086 44.6258 114.75 43.8547 114.183 43.2777C113.617 42.7007 112.86 42.3589 112.06 42.3189C111.259 42.2789 110.473 42.5434 109.854 43.0611L102.562 50.5282L95.2711 43.0611C94.6518 42.5434 93.8655 42.2789 93.0653 42.3189C92.2651 42.3589 91.5081 42.7007 90.9415 43.2777C90.375 43.8547 90.0395 44.6258 90.0002 45.4408C89.9609 46.2559 90.2206 47.0567 90.7289 47.6874L98.0602 55.1139L90.7289 62.5403C90.1304 63.1558 89.7946 63.9871 89.7946 64.8535C89.7946 65.7198 90.1304 66.5511 90.7289 67.1666Z" fill="#FFCF26"/>
<defs>
<linearGradient id="paint0_linear_352_8090" x1="136.232" y1="21.4493" x2="26.9565" y2="139.42" gradientUnits="userSpaceOnUse">
<stop stop-color="#FFEBA4"/>
<stop offset="1" stop-color="#FFCF26"/>
</linearGradient>
</defs>
</svg>
