<svg width="160" height="160" viewBox="0 0 160 160" fill="none" xmlns="http://www.w3.org/2000/svg">
<rect width="160" height="160" rx="80" fill="url(#paint0_linear_352_6138)" fill-opacity="0.6"/>
<path d="M104.962 84.9551C103.889 104.851 93.6155 117.953 75.4167 122.098C73.7244 122.483 71.9762 122.658 70.2481 122.496C64.2886 121.94 60.4397 119.41 56.9972 115.351C55.8258 113.97 55.0152 112.311 54.6851 110.53C53.6623 105.013 54.1877 99.7112 54.5295 95.0822C54.9279 89.6867 51.2929 85.1551 45.9042 84.673C40.2405 84.1663 35.7248 84.4926 32.3565 79.7916C31.3419 78.3757 30.8747 76.6324 30.8656 74.8905C30.7798 58.5246 47.1087 47.793 67.0167 47.793C87.9732 47.793 104.962 64.431 104.962 84.9551Z" stroke="#FFCF26" stroke-width="5"/>
<path d="M104.626 53.7802L102.697 54.8467C101.73 55.382 101.38 56.6013 101.917 57.5682L124.895 98.9308C125.315 99.6863 126.279 99.9413 127.018 99.4921C127.683 99.0876 127.935 98.2465 127.604 97.5424L107.403 54.6778C106.91 53.6326 105.637 53.221 104.626 53.7802Z" fill="#FFCF26" stroke="#FFCF26" stroke-width="4"/>
<path d="M101.544 53.0407C93.1697 51.4055 92.594 43.7976 93.6366 38.7679C93.8563 37.7083 94.9608 37.1284 95.9591 37.5461C100.724 39.54 106.746 44.3039 103.476 52.016C103.157 52.7692 102.347 53.1975 101.544 53.0407Z" stroke="#FFCF26" stroke-width="5"/>
<ellipse cx="78.5406" cy="68.6037" rx="7.78378" ry="7.92793" fill="#FFCF26"/>
<ellipse cx="56.1617" cy="66.6218" rx="7.78378" ry="7.92793" fill="#FFCF26"/>
<ellipse cx="87.2975" cy="90.4055" rx="7.78378" ry="7.92793" fill="#FFCF26"/>
<ellipse cx="73.7896" cy="106.261" rx="7.78378" ry="7.92793" fill="#FFCF26"/>
<defs>
<linearGradient id="paint0_linear_352_6138" x1="136.232" y1="21.4493" x2="26.9565" y2="139.42" gradientUnits="userSpaceOnUse">
<stop stop-color="#FFEBA4"/>
<stop offset="1" stop-color="#FFCF26"/>
</linearGradient>
</defs>
</svg>
