<svg width="160" height="160" viewBox="0 0 160 160" fill="none" xmlns="http://www.w3.org/2000/svg">
<rect width="160" height="160" rx="80" fill="url(#paint0_linear_352_8424)" fill-opacity="0.6"/>
<g clip-path="url(#clip0_352_8424)">
<path d="M89.4295 79.7478C89.4295 72.2188 81.4252 67.4878 75.0562 71.2522C68.6875 75.0165 68.6875 84.4789 75.0562 88.2434C81.4252 92.0077 89.4295 87.2766 89.4295 79.7478ZM111.369 61.6644C117.71 30.7935 103.76 21.1058 80.0448 43.4517C57.7247 22.1392 41.8301 28.8558 48.5936 61.5351C17.4044 71.112 19.4708 89.1395 48.8474 98.3479C42.1261 128.444 54.6811 139.423 80.0448 116.69C104.648 139.165 117.705 128.642 110.989 98.2188C143.031 87.1535 140.157 71.1367 111.369 61.6644ZM107.057 60.5019C102.03 59.3469 97.1664 58.5062 92.2193 58.0475C89.613 54.1659 86.5772 50.2884 83.0885 46.681C102.102 28.1056 113.308 33.9096 107.057 60.5019ZM57.9785 85.6891C59.8594 89.7795 62.3324 93.5253 64.1925 96.6685C61.1636 96.3529 57.9008 95.8738 54.4273 95.2475C55.5539 92.0397 56.738 88.853 57.9785 85.6891ZM57.7247 74.5808C56.341 71.1979 55.0785 67.9329 54.047 64.8933C57.6325 64.1362 61.1463 63.4489 64.1925 63.2141C61.9253 66.8415 59.7719 70.6341 57.7247 74.5808ZM60.3878 80.2641C63.489 73.9384 66.7695 67.934 70.4065 62.5683C76.8599 62.1901 83.2448 62.2236 89.5562 62.6974C93.096 67.7211 96.3997 73.7253 99.5749 80.2641C97.1989 85.2652 93.825 91.0286 89.9368 97.1852C83.4445 97.6858 76.7878 97.6166 70.0262 97.1852C66.5991 91.8377 63.3806 86.2052 60.3878 80.2641ZM101.984 85.6891C103.216 88.7328 104.354 91.8349 105.409 94.9893C102.224 95.6723 99.0068 96.1896 95.7702 96.5393C97.9418 93.1126 100.002 89.4742 101.984 85.6891ZM95.7702 63.2143C99.2281 63.6962 102.569 64.2982 105.789 65.0224C104.718 68.2683 103.491 71.4583 102.111 74.5808C100.148 70.6376 98.0406 66.8426 95.7702 63.2143ZM86.0053 57.5308C82.0555 57.3729 78.0376 57.3781 73.9574 57.5308C75.7436 55.1381 77.7344 52.6388 79.9181 50.0392C82.0458 52.3784 84.0619 54.8964 86.0053 57.5308ZM76.8742 46.6808C73.3856 50.2882 70.3499 54.0366 67.7434 57.9182C62.7963 58.3769 57.8055 59.2176 52.7789 60.3723C46.8182 33.3764 57.861 28.1052 76.8742 46.6808ZM49.9888 94.0852C23.5682 85.9907 24.8364 73.3755 49.735 65.9269C51.2582 70.6341 53.102 75.4151 55.1884 80.0061C53.1613 84.7541 51.3664 89.6304 49.9888 94.0852ZM53.2859 99.5102C57.7669 100.63 62.5155 101.167 67.4898 101.706C70.4826 106.008 73.5821 110.008 76.8745 113.46C57.5133 132.362 46.7203 125.494 53.2859 99.5102ZM79.9181 110.231C77.6237 107.811 75.4816 105.07 73.4503 102.094C77.9785 102.191 82.3519 102.202 86.5126 102.094C84.5211 104.973 82.3165 107.694 79.9181 110.231ZM83.0885 113.46C86.621 109.551 89.7351 105.588 92.4731 101.577C97.1462 101.227 101.881 100.495 106.677 99.3813C113.302 127.039 101.273 131.123 83.0885 113.46ZM109.847 93.8269C108.489 89.3722 106.773 84.7541 104.775 80.0061C106.809 75.463 108.587 70.8054 110.101 66.056C134.408 73.5476 136.352 85.5172 109.847 93.8269Z" fill="#C57ED0"/>
</g>
<defs>
<linearGradient id="paint0_linear_352_8424" x1="123.781" y1="33.8308" x2="26.9565" y2="139.42" gradientUnits="userSpaceOnUse">
<stop stop-color="#EBC5F9"/>
<stop offset="1" stop-color="#C57ED0"/>
</linearGradient>
<clipPath id="clip0_352_8424">
<rect width="108" height="110" fill="white" transform="translate(26 25)"/>
</clipPath>
</defs>
</svg>
