<svg width="160" height="160" viewBox="0 0 160 160" fill="none" xmlns="http://www.w3.org/2000/svg">
<rect width="160" height="160" rx="80" fill="url(#paint0_linear_352_8399)" fill-opacity="0.6"/>
<path d="M30.3125 120.486H129.688L121.441 53.2503C121.38 47.6058 121.521 44.48 121.521 44.48C120.235 44.8831 118.322 45.0383 116.032 45.0383C115.644 45.0383 115.238 45.0316 114.826 45.0232C114.818 41.4992 114.891 39.5137 114.891 39.5137C112.901 42.179 108.655 42.8572 103.814 42.8572C98.7868 42.8572 93.1208 42.1267 88.6688 42.1267C81.8003 42.1267 80.3329 46.8079 80.0149 48.8204C79.6969 46.7995 78.2228 42.1385 71.3693 42.1385C66.9173 42.1385 61.2546 42.869 56.2295 42.869C51.3833 42.869 47.1367 42.1908 45.1475 39.5221C45.1475 39.5221 45.2204 41.5059 45.2105 45.0215C44.8014 45.0282 44.3939 45.0367 44.0047 45.0367C41.7108 45.0367 39.8028 44.8815 38.5176 44.4783C38.5176 44.4783 38.6517 47.4658 38.6004 52.8893L30.3125 120.486ZM116.032 48.1794C116.868 48.1794 117.635 48.1591 118.339 48.1203C118.253 57.2854 118.635 82.3227 124.118 114.72C123.102 114.554 122.09 114.367 121.082 114.158C121.731 113.883 122.246 113.509 122.594 113.004C116.31 85.8939 115.046 60.8313 114.857 48.1625C115.255 48.171 115.651 48.1794 116.032 48.1794ZM89.3148 46.4486C92.6786 46.4486 97.1803 46.8518 101.942 47.2786C105.268 47.5772 108.665 47.8774 111.764 48.0461C111.954 60.5209 113.165 84.9981 119.063 111.488C118.617 111.564 117.999 111.623 117.148 111.623C114.001 111.623 109.493 110.808 105.134 110.019C100.224 109.131 95.1497 108.212 91.0091 108.212C87.7993 108.212 85.2718 108.826 83.2794 109.766C83.2032 109.798 83.1154 109.821 83.0442 109.855L83.0326 50.7941C83.0906 49.9608 83.6669 46.4486 89.3148 46.4486ZM48.2795 48.0461C51.3783 47.8774 54.772 47.5772 58.0961 47.2786C62.8595 46.8535 67.3612 46.4486 70.7283 46.4486C76.1923 46.4486 76.9227 49.701 77.0072 50.8633L76.9923 109.853C76.8614 109.794 76.7057 109.747 76.5682 109.691C74.6006 108.799 72.1394 108.215 69.024 108.215C64.8834 108.215 59.8087 109.136 54.9012 110.024C50.5386 110.815 46.032 111.63 42.8851 111.63C42.0338 111.63 41.4143 111.571 40.9754 111.496C46.875 85.0032 48.0857 60.5175 48.2795 48.0461ZM41.7025 48.1203C42.4081 48.1591 43.1733 48.1794 44.0097 48.1794C44.3906 48.1794 44.7881 48.171 45.1856 48.1642C44.9952 60.8296 43.7298 85.899 37.4427 113.015C37.7888 113.516 38.2989 113.89 38.9399 114.163C37.9114 114.372 36.8994 114.563 35.9156 114.722C41.4027 82.3227 41.787 57.2854 41.7025 48.1203Z" fill="#ACA9B4"/>
<path d="M68.7342 49.4936C72.9841 49.4936 74.3853 50.4754 74.4002 50.4855L74.7944 49.9592L75.1968 49.4447C75.0329 49.3199 73.4594 48.2031 68.7789 48.2031C65.256 48.2031 60.9067 49.1124 57.0477 49.912C54.2353 50.499 51.799 51.0068 50.4044 51.0068L50.2902 52.3192C51.8255 52.3192 54.3331 51.7946 57.2298 51.1873C61.0392 50.3927 65.3355 49.4936 68.7342 49.4936ZM68.5122 56.1064C72.845 56.1064 74.2776 57.1269 74.2909 57.1371L74.6917 56.5939L75.1024 56.0574C74.9352 55.9208 73.3319 54.7619 68.5586 54.7619C64.9662 54.7619 60.5308 55.7032 56.5955 56.5416C53.7252 57.1472 51.2408 57.6769 49.8198 57.6769L49.6989 59.045C51.2657 59.045 53.8213 58.4984 56.7777 57.8709C60.6599 57.0426 65.0473 56.1064 68.5122 56.1064ZM68.282 62.989C72.7025 62.989 74.16 64.0467 74.1766 64.0602L74.5857 63.4934L75.0064 62.9384C74.8341 62.7967 73.1961 61.5905 68.3284 61.5905C64.6648 61.5905 60.1399 62.5706 56.1235 63.4411C53.1936 64.0737 50.6562 64.6253 49.2086 64.6253L49.0811 66.0457C50.681 66.0457 53.2913 65.4789 56.3057 64.8244C60.2691 63.959 64.7443 62.989 68.282 62.989ZM68.0385 70.1517C72.5485 70.1517 74.0375 71.2583 74.0557 71.2684L74.4731 70.6797L74.9004 70.096C74.7265 69.9526 73.0553 68.6942 68.0899 68.6942C64.3501 68.6942 59.7291 69.7147 55.6299 70.624C52.6387 71.2836 50.0517 71.8538 48.5693 71.8538L48.4401 73.3383C50.0699 73.3383 52.7398 72.7461 55.8171 72.0629C59.8649 71.1638 64.4296 70.1517 68.0385 70.1517ZM67.7884 77.6163C72.3928 77.6163 73.9149 78.7701 73.9282 78.7819L74.3588 78.1662L74.796 77.5589C74.6155 77.4088 72.9112 76.0997 67.8398 76.0997C64.0238 76.0997 59.3051 77.1625 55.1181 78.1072C52.0607 78.7938 49.419 79.3926 47.9052 79.3926L47.771 80.9395C49.4355 80.9395 52.1584 80.3221 55.3053 79.6069C59.4376 78.6706 64.0983 77.6163 67.7884 77.6163ZM67.5251 85.4014C72.2288 85.4014 73.7824 86.6025 73.7973 86.616L74.2346 85.975L74.6834 85.3424C74.5012 85.1855 72.7605 83.8191 67.5814 83.8191C63.6826 83.8191 58.8596 84.9291 54.5832 85.9143C51.4578 86.6329 48.7565 87.2554 47.2112 87.2554L47.0704 88.8664C48.773 88.8664 51.5588 88.2236 54.772 87.4814C58.9954 86.5013 63.7604 85.4014 67.5251 85.4014ZM67.2535 93.529C72.0599 93.529 73.6449 94.7875 73.6615 94.8009L74.1087 94.1296L74.5642 93.4683C74.3787 93.303 72.5998 91.8775 67.3065 91.8775C63.3232 91.8775 58.3958 93.0381 54.0217 94.0638C50.8301 94.8145 48.0658 95.4673 46.4891 95.4673L46.34 97.1542C48.0807 97.1542 50.9278 96.4794 54.2138 95.7018C58.5333 94.6795 63.4043 93.529 67.2535 93.529ZM66.9636 102.023C71.8827 102.023 73.5008 103.333 73.5174 103.347L73.9745 102.645L74.4432 101.957C74.2511 101.785 72.4359 100.294 67.0249 100.294C62.9505 100.294 57.9106 101.505 53.437 102.581C50.1726 103.367 47.3453 104.042 45.7322 104.042L45.5781 105.806C47.3553 105.806 50.267 105.105 53.6292 104.293C58.0497 103.225 63.0317 102.023 66.9636 102.023ZM85.6428 50.4855C85.6561 50.4754 87.0573 49.4936 91.3072 49.4936C94.7091 49.4936 99.0038 50.3927 102.811 51.1873C105.708 51.7946 108.216 52.3192 109.75 52.3192L109.635 51.0068C108.241 51.0068 105.804 50.499 102.992 49.912C99.1363 49.1124 94.7853 48.2031 91.2625 48.2031C86.5852 48.2031 85.0085 49.3199 84.8428 49.4447L85.247 49.9592L85.6428 50.4855ZM91.4861 54.7636C86.7111 54.7636 85.1062 55.9225 84.9422 56.0591L85.353 56.5956L85.7521 57.1387C85.767 57.1303 87.198 56.108 91.5324 56.108C94.9973 56.108 99.3814 57.0426 103.264 57.8709C106.218 58.5001 108.776 59.045 110.342 59.045L110.222 57.6769C108.804 57.6769 106.318 57.1489 103.447 56.5416C99.5139 55.7049 95.0785 54.7636 91.4861 54.7636ZM91.7146 61.5905C86.8469 61.5905 85.2089 62.7967 85.0383 62.9384L85.4573 63.4934L85.8664 64.0602C85.8813 64.0484 87.3421 62.989 91.761 62.989C95.3004 62.989 99.7706 63.959 103.736 64.8227C106.75 65.4772 109.362 66.044 110.959 66.044L110.834 64.6236C109.385 64.6236 106.849 64.072 103.918 63.4394C99.9064 62.5689 95.3782 61.5905 91.7146 61.5905ZM91.9531 68.6942C86.9844 68.6942 85.3132 69.9509 85.1426 70.096L85.5683 70.6797L85.9873 71.2684C86.0039 71.2583 87.4912 70.1517 92.0028 70.1517C95.6134 70.1517 100.18 71.1638 104.229 72.0613C107.307 72.7445 109.973 73.3366 111.605 73.3366L111.47 71.8538C109.99 71.8538 107.403 71.2836 104.411 70.624C100.314 69.7147 95.6929 68.6942 91.9531 68.6942ZM92.1999 76.0997C87.1268 76.0997 85.4258 77.4088 85.2486 77.5589L85.6859 78.1662L86.1115 78.7819C86.1297 78.7701 87.6469 77.6163 92.2546 77.6163C95.9414 77.6163 100.605 78.6706 104.736 79.6069C107.883 80.3221 110.607 80.9395 112.274 80.9395L112.138 79.3926C110.624 79.3926 107.981 78.7938 104.927 78.1072C100.74 77.1625 96.0209 76.0997 92.1999 76.0997ZM92.4583 83.8191C87.2792 83.8191 85.5401 85.1872 85.3563 85.3424L85.8051 85.975L86.2424 86.616C86.2556 86.6025 87.8092 85.4014 92.5129 85.4014C96.2759 85.4014 101.043 86.5013 105.268 87.4797C108.481 88.222 111.265 88.8647 112.968 88.8647L112.825 87.2537C111.282 87.2537 108.58 86.6312 105.46 85.9126C101.182 84.9291 96.3604 83.8191 92.4583 83.8191ZM92.7332 91.8758C87.4398 91.8758 85.6627 93.303 85.4755 93.4666L85.9293 94.1279L86.3782 94.7993C86.3931 94.7858 87.9798 93.5273 92.7879 93.5273C96.6353 93.5273 101.508 94.6795 105.826 95.6984C109.112 96.4761 111.961 97.1508 113.7 97.1508L113.549 95.4639C111.971 95.4639 109.208 94.8111 106.02 94.0604C101.644 93.0364 96.7165 91.8758 92.7332 91.8758ZM93.0148 100.292C87.6022 100.292 85.7852 101.785 85.5948 101.955L86.0602 102.643L86.5173 103.345C86.5355 103.332 88.157 102.021 93.0711 102.021C97.008 102.021 101.99 103.224 106.407 104.292C109.768 105.103 112.681 105.805 114.462 105.805L114.304 104.04C112.691 104.04 109.864 103.365 106.601 102.579C102.127 101.503 97.0858 100.292 93.0148 100.292Z" fill="#ACA9B4"/>
<defs>
<linearGradient id="paint0_linear_352_8399" x1="136.232" y1="21.4493" x2="12.3383" y2="146.07" gradientUnits="userSpaceOnUse">
<stop stop-color="#EAEDF2"/>
<stop offset="1" stop-color="#9AA0A4"/>
</linearGradient>
</defs>
</svg>
